<svg width="89" height="56" viewBox="0 0 89 56" fill="none" xmlns="http://www.w3.org/2000/svg">
<path d="M33.5816 15.105C33.3316 15.105 33.1366 15.035 32.9966 14.895C32.8666 14.755 32.8016 14.56 32.8016 14.31V5.73H29.6216C29.4116 5.73 29.2466 5.675 29.1266 5.565C29.0066 5.445 28.9466 5.28 28.9466 5.07C28.9466 4.86 29.0066 4.7 29.1266 4.59C29.2466 4.48 29.4116 4.425 29.6216 4.425H37.5266C37.7466 4.425 37.9166 4.48 38.0366 4.59C38.1566 4.7 38.2166 4.86 38.2166 5.07C38.2166 5.28 38.1566 5.445 38.0366 5.565C37.9166 5.675 37.7466 5.73 37.5266 5.73H34.3466V14.31C34.3466 14.56 34.2816 14.755 34.1516 14.895C34.0316 15.035 33.8416 15.105 33.5816 15.105ZM38.8343 15.105C38.5843 15.105 38.3943 15.04 38.2643 14.91C38.1343 14.77 38.0693 14.58 38.0693 14.34V8.34C38.0693 8.09 38.1343 7.9 38.2643 7.77C38.3943 7.64 38.5743 7.575 38.8043 7.575C39.0443 7.575 39.2243 7.64 39.3443 7.77C39.4743 7.9 39.5393 8.09 39.5393 8.34V9.435H39.3893C39.5493 8.835 39.8443 8.38 40.2743 8.07C40.7043 7.76 41.2543 7.58 41.9243 7.53C42.1043 7.52 42.2443 7.565 42.3443 7.665C42.4543 7.765 42.5143 7.92 42.5243 8.13C42.5443 8.34 42.4993 8.51 42.3893 8.64C42.2793 8.76 42.1093 8.83 41.8793 8.85L41.5943 8.88C40.9443 8.94 40.4493 9.145 40.1093 9.495C39.7693 9.845 39.5993 10.325 39.5993 10.935V14.34C39.5993 14.58 39.5343 14.77 39.4043 14.91C39.2843 15.04 39.0943 15.105 38.8343 15.105ZM45.8441 17.805C45.6641 17.805 45.5141 17.755 45.3941 17.655C45.2841 17.565 45.2191 17.44 45.1991 17.28C45.1891 17.13 45.2191 16.965 45.2891 16.785L46.3091 14.49V15.135L43.5041 8.61C43.4341 8.43 43.4091 8.26 43.4291 8.1C43.4491 7.94 43.5241 7.815 43.6541 7.725C43.7841 7.625 43.9591 7.575 44.1791 7.575C44.3691 7.575 44.5191 7.62 44.6291 7.71C44.7391 7.8 44.8391 7.955 44.9291 8.175L47.1941 13.77H46.7741L49.0691 8.175C49.1591 7.945 49.2641 7.79 49.3841 7.71C49.5041 7.62 49.6691 7.575 49.8791 7.575C50.0591 7.575 50.1991 7.625 50.2991 7.725C50.4091 7.815 50.4741 7.94 50.4941 8.1C50.5241 8.25 50.4991 8.415 50.4191 8.595L46.6691 17.22C46.5691 17.45 46.4541 17.605 46.3241 17.685C46.2041 17.765 46.0441 17.805 45.8441 17.805ZM56.6171 15.105C56.3771 15.105 56.1921 15.04 56.0621 14.91C55.9321 14.77 55.8671 14.58 55.8671 14.34V8.34C55.8671 8.09 55.9321 7.9 56.0621 7.77C56.1921 7.64 56.3721 7.575 56.6021 7.575C56.8421 7.575 57.0221 7.64 57.1421 7.77C57.2721 7.9 57.3371 8.09 57.3371 8.34V9.51L57.1721 9.24C57.3921 8.68 57.7371 8.26 58.2071 7.98C58.6771 7.69 59.2171 7.545 59.8271 7.545C60.4071 7.545 60.8871 7.655 61.2671 7.875C61.6571 8.085 61.9471 8.41 62.1371 8.85C62.3271 9.28 62.4221 9.825 62.4221 10.485V14.34C62.4221 14.58 62.3571 14.77 62.2271 14.91C62.0971 15.04 61.9121 15.105 61.6721 15.105C61.4221 15.105 61.2321 15.04 61.1021 14.91C60.9721 14.77 60.9071 14.58 60.9071 14.34V10.575C60.9071 9.945 60.7821 9.485 60.5321 9.195C60.2921 8.905 59.9121 8.76 59.3921 8.76C58.7821 8.76 58.2921 8.95 57.9221 9.33C57.5621 9.71 57.3821 10.22 57.3821 10.86V14.34C57.3821 14.85 57.1271 15.105 56.6171 15.105ZM67.6897 15.135C66.9497 15.135 66.3097 14.98 65.7697 14.67C65.2397 14.36 64.8247 13.92 64.5247 13.35C64.2247 12.78 64.0747 12.11 64.0747 11.34C64.0747 10.75 64.1597 10.225 64.3297 9.765C64.4997 9.305 64.7397 8.91 65.0497 8.58C65.3697 8.24 65.7497 7.985 66.1897 7.815C66.6397 7.635 67.1397 7.545 67.6897 7.545C68.4197 7.545 69.0497 7.7 69.5797 8.01C70.1197 8.32 70.5397 8.76 70.8397 9.33C71.1397 9.89 71.2897 10.56 71.2897 11.34C71.2897 11.92 71.2047 12.445 71.0347 12.915C70.8647 13.385 70.6197 13.785 70.2997 14.115C69.9897 14.445 69.6097 14.7 69.1597 14.88C68.7197 15.05 68.2297 15.135 67.6897 15.135ZM67.6897 13.965C68.0997 13.965 68.4597 13.865 68.7697 13.665C69.0797 13.465 69.3197 13.17 69.4897 12.78C69.6697 12.39 69.7597 11.91 69.7597 11.34C69.7597 10.48 69.5697 9.83 69.1897 9.39C68.8097 8.95 68.3097 8.73 67.6897 8.73C67.2697 8.73 66.9047 8.83 66.5947 9.03C66.2847 9.22 66.0397 9.51 65.8597 9.9C65.6897 10.29 65.6047 10.77 65.6047 11.34C65.6047 12.19 65.7947 12.84 66.1747 13.29C66.5547 13.74 67.0597 13.965 67.6897 13.965ZM75.5293 15.105C75.3193 15.105 75.1343 15.055 74.9743 14.955C74.8243 14.845 74.7043 14.675 74.6143 14.445L72.4093 8.61C72.3293 8.41 72.3043 8.235 72.3343 8.085C72.3643 7.925 72.4393 7.8 72.5593 7.71C72.6893 7.62 72.8543 7.575 73.0543 7.575C73.2343 7.575 73.3793 7.62 73.4893 7.71C73.6093 7.79 73.7093 7.95 73.7893 8.19L75.7543 13.725H75.3943L77.4343 8.13C77.5043 7.94 77.5993 7.8 77.7193 7.71C77.8393 7.62 77.9943 7.575 78.1843 7.575C78.3743 7.575 78.5293 7.62 78.6493 7.71C78.7793 7.8 78.8743 7.94 78.9343 8.13L80.9293 13.725H80.5993L82.5943 8.16C82.6743 7.93 82.7743 7.775 82.8943 7.695C83.0243 7.615 83.1693 7.575 83.3293 7.575C83.5293 7.575 83.6793 7.625 83.7793 7.725C83.8893 7.825 83.9493 7.955 83.9593 8.115C83.9793 8.265 83.9543 8.43 83.8843 8.61L81.6793 14.445C81.5893 14.665 81.4643 14.83 81.3043 14.94C81.1543 15.05 80.9793 15.105 80.7793 15.105C80.5693 15.105 80.3843 15.05 80.2243 14.94C80.0743 14.83 79.9543 14.665 79.8643 14.445L77.7643 8.76H78.5143L76.4293 14.445C76.3493 14.665 76.2293 14.83 76.0693 14.94C75.9193 15.05 75.7393 15.105 75.5293 15.105ZM86.2799 12.15C86.1199 12.15 85.9949 12.1 85.9049 12C85.8249 11.9 85.7749 11.76 85.7549 11.58L85.3949 5.31C85.3749 5.01 85.4399 4.77 85.5899 4.59C85.7399 4.41 85.9699 4.32 86.2799 4.32C86.5699 4.32 86.7899 4.41 86.9399 4.59C87.0899 4.77 87.1499 5.01 87.1199 5.31L86.7599 11.58C86.7499 11.76 86.6999 11.9 86.6099 12C86.5299 12.1 86.4199 12.15 86.2799 12.15ZM86.2799 15.06C85.9899 15.06 85.7549 14.97 85.5749 14.79C85.3949 14.61 85.3049 14.38 85.3049 14.1C85.3049 13.82 85.3949 13.595 85.5749 13.425C85.7549 13.245 85.9899 13.155 86.2799 13.155C86.5699 13.155 86.7999 13.245 86.9699 13.425C87.1399 13.595 87.2249 13.82 87.2249 14.1C87.2249 14.38 87.1399 14.61 86.9699 14.79C86.7999 14.97 86.5699 15.06 86.2799 15.06Z" fill="white"/>
<path d="M54.6656 21.959C39.8185 39.2144 26.8331 36.5256 3.28651 32.7961M16.59 27.6207L2.74186 32.2362L10.9117 40.6341" stroke="white" stroke-width="3"/>
</svg>
